<?xml version="1.0" encoding="UTF-8"?>
<!DOCTYPE svg PUBLIC "-//W3C//DTD SVG 1.1//EN" "http://www.w3.org/Graphics/SVG/1.1/DTD/svg11.dtd">
<svg xmlns="http://www.w3.org/2000/svg" version="1.1" width="404px" height="116px" style="shape-rendering:geometricPrecision; text-rendering:geometricPrecision; image-rendering:optimizeQuality; fill-rule:evenodd; clip-rule:evenodd" xmlns:xlink="http://www.w3.org/1999/xlink">
<g><path style="opacity:1" fill="#fcfcfc" d="M -0.5,-0.5 C 134.167,-0.5 268.833,-0.5 403.5,-0.5C 403.5,38.1667 403.5,76.8333 403.5,115.5C 268.833,115.5 134.167,115.5 -0.5,115.5C -0.5,76.8333 -0.5,38.1667 -0.5,-0.5 Z"/></g>
<g><path style="opacity:1" fill="#010101" d="M 9.5,3.5 C 46.2282,3.01906 82.8949,3.51906 119.5,5C 120.667,6.16667 121.833,7.33333 123,8.5C 123.986,41.9186 123.652,75.2519 122,108.5C 120.681,110.487 118.848,111.654 116.5,112C 80.0819,112.987 43.7486,112.653 7.5,111C 6.21251,109.59 5.04584,108.09 4,106.5C 3.33333,74.1667 3.33333,41.8333 4,9.5C 5.35968,6.97739 7.19301,4.97739 9.5,3.5 Z"/></g>
<g><path style="opacity:1" fill="#ececec" d="M 84.5,76.5 C 87.1288,73.3694 89.9621,70.3694 93,67.5C 94.1505,65.2462 94.4838,62.9129 94,60.5C 92.9887,59.6634 91.8221,59.33 90.5,59.5C 90.243,66.3455 87.5763,72.0122 82.5,76.5C 81.325,76.281 80.325,76.6143 79.5,77.5C 79.6236,78.1067 79.9569,78.44 80.5,78.5C 81.489,88.3334 77.1557,91.8334 67.5,89C 63.7642,88.297 60.4309,86.797 57.5,84.5C 57.8417,83.6618 58.5084,83.3284 59.5,83.5C 58.1516,82.3994 56.6516,81.3994 55,80.5C 54.2828,81.0442 53.7828,81.7109 53.5,82.5C 49.0282,86.7302 44.8615,86.3969 41,81.5C 38.0769,75.8106 37.0769,69.8106 38,63.5C 38.3333,64.5 38.6667,65.5 39,66.5C 39.4955,64.5273 39.6621,62.5273 39.5,60.5C 32.3479,59.5 29.8479,55.5 32,48.5C 33.5292,47.2713 34.6959,45.7713 35.5,44C 38.1393,41.5173 41.1393,39.684 44.5,38.5C 44.5,38.8333 44.5,39.1667 44.5,39.5C 38.5731,42.8941 35.4064,47.8941 35,54.5C 35.6891,55.3567 36.5224,56.0233 37.5,56.5C 38.8396,50.1565 41.5063,44.4898 45.5,39.5C 48.6343,39.2934 49.6343,37.9601 48.5,35.5C 48.3367,33.1432 48.5034,30.8098 49,28.5C 52.6814,25.6403 56.8481,24.8069 61.5,26C 64.9927,26.9419 68.326,28.2752 71.5,30C 72.9247,31.3619 73.758,32.8619 74,34.5C 80.17,27.5351 85.5034,28.2018 90,36.5C 91.4385,41.7625 91.7718,47.0958 91,52.5C 90.4093,47.2726 89.0759,42.2726 87,37.5C 85.7049,35.8783 84.2049,34.545 82.5,33.5C 80.9996,33.4528 79.9996,34.1195 79.5,35.5C 81.8167,38.3174 84.3167,40.9841 87,43.5C 88.9039,46.9231 89.7372,50.5898 89.5,54.5C 96.7716,55.3592 99.2716,59.3592 97,66.5C 94.1419,71.5304 89.9752,74.8637 84.5,76.5 Z"/></g>
<g><path style="opacity:1" fill="#0e0e0e" d="M 53.5,28.5 C 59.072,27.9896 64.4053,28.8229 69.5,31C 63.7143,31.2063 58.0476,32.0397 52.5,33.5C 52.366,31.7085 52.6993,30.0418 53.5,28.5 Z"/></g>
<g><path style="opacity:1" fill="#0e0e0e" d="M 58.5,33.5 C 73.2248,33.0221 75.2248,37.6888 64.5,47.5C 59.6402,44.8068 55.9735,40.9735 53.5,36C 55.1749,35.0147 56.8415,34.1814 58.5,33.5 Z"/></g>
<g><path style="opacity:1" fill="#0e0e0e" d="M 77.5,36.5 C 82.7384,40.6473 85.5717,45.9807 86,52.5C 84.5267,54.0071 82.6934,54.6738 80.5,54.5C 78.1417,54.2471 75.8083,53.9138 73.5,53.5C 73.1192,47.3601 74.4525,41.6934 77.5,36.5 Z"/></g>
<g><path style="opacity:1" fill="#090909" d="M 147.5,37.5 C 154.5,37.5 161.5,37.5 168.5,37.5C 168.5,39.8333 168.5,42.1667 168.5,44.5C 166.167,44.5 163.833,44.5 161.5,44.5C 161.5,56.1667 161.5,67.8333 161.5,79.5C 159.167,79.5 156.833,79.5 154.5,79.5C 154.5,67.8333 154.5,56.1667 154.5,44.5C 148.5,45.8333 146.167,43.5 147.5,37.5 Z"/></g>
<g><path style="opacity:1" fill="#070707" d="M 175.5,37.5 C 180.248,37.2748 184.915,37.7748 189.5,39C 195.489,43.2128 196.989,48.7128 194,55.5C 192.267,57.7231 190.767,60.0565 189.5,62.5C 191.722,68.0554 194.389,73.3888 197.5,78.5C 194.833,79.8333 192.167,79.8333 189.5,78.5C 187,73.5 184.5,68.5 182,63.5C 181.501,68.8229 181.334,74.1563 181.5,79.5C 179.167,79.5 176.833,79.5 174.5,79.5C 174.185,65.4213 174.518,51.4213 175.5,37.5 Z"/></g>
<g><path style="opacity:1" fill="#060606" d="M 290.5,60.5 C 289.518,63.9619 289.185,67.6286 289.5,71.5C 292.5,71.5 295.5,71.5 298.5,71.5C 299.117,71.6107 299.617,71.944 300,72.5C 300.495,74.4727 300.662,76.4727 300.5,78.5C 294.5,78.5 288.5,78.5 282.5,78.5C 282.333,65.1625 282.5,51.8292 283,38.5C 288.741,37.5251 294.575,37.1918 300.5,37.5C 300.5,39.8333 300.5,42.1667 300.5,44.5C 296.833,44.5 293.167,44.5 289.5,44.5C 289.5,47.5 289.5,50.5 289.5,53.5C 292.833,53.5 296.167,53.5 299.5,53.5C 299.5,55.8333 299.5,58.1667 299.5,60.5C 296.5,60.5 293.5,60.5 290.5,60.5 Z"/></g>
<g><path style="opacity:1" fill="#686868" d="M 355.5,38.5 C 353.5,38.5 351.5,38.5 349.5,38.5C 349.5,39.8333 349.5,41.1667 349.5,42.5C 348.549,41.0813 348.216,39.4147 348.5,37.5C 351.059,37.1984 353.393,37.5318 355.5,38.5 Z"/></g>
<g><path style="opacity:1" fill="#090909" d="M 389.5,60.5 C 388.518,63.9619 388.185,67.6286 388.5,71.5C 391.5,71.5 394.5,71.5 397.5,71.5C 399.344,73.2789 400.01,75.6122 399.5,78.5C 393.5,78.5 387.5,78.5 381.5,78.5C 381.333,65.1625 381.5,51.8292 382,38.5C 387.741,37.5251 393.575,37.1918 399.5,37.5C 399.5,39.8333 399.5,42.1667 399.5,44.5C 396.15,44.335 392.817,44.5017 389.5,45C 388.556,47.7191 388.223,50.5525 388.5,53.5C 391.85,53.335 395.183,53.5017 398.5,54C 399.833,56 399.833,58 398.5,60C 395.518,60.498 392.518,60.6646 389.5,60.5 Z"/></g>
<g><path style="opacity:1" fill="#828282" d="M 48.5,35.5 C 49.6343,37.9601 48.6343,39.2934 45.5,39.5C 45.1667,39.5 44.8333,39.5 44.5,39.5C 44.5,39.1667 44.5,38.8333 44.5,38.5C 45.8333,37.5 47.1667,36.5 48.5,35.5 Z"/></g>
<g><path style="opacity:1" fill="#090909" d="M 252.5,37.5 C 268.88,35.3825 276.88,42.5492 276.5,59C 275.816,74.8209 267.482,81.3209 251.5,78.5C 251.185,64.7544 251.519,51.0877 252.5,37.5 Z"/></g>
<g><path style="opacity:1" fill="#0b0b0b" d="M 306.5,37.5 C 308.792,37.2436 310.959,37.5769 313,38.5C 313.499,44.1569 313.666,49.8236 313.5,55.5C 316.5,55.5 319.5,55.5 322.5,55.5C 322.5,49.5 322.5,43.5 322.5,37.5C 324.833,37.5 327.167,37.5 329.5,37.5C 329.5,51.5 329.5,65.5 329.5,79.5C 327.167,79.5 324.833,79.5 322.5,79.5C 322.5,73.8333 322.5,68.1667 322.5,62.5C 319.5,62.5 316.5,62.5 313.5,62.5C 313.5,68.1667 313.5,73.8333 313.5,79.5C 311.167,79.5 308.833,79.5 306.5,79.5C 306.5,65.5 306.5,51.5 306.5,37.5 Z"/></g>
<g><path style="opacity:1" fill="#030303" d="M 335.5,37.5 C 337.833,37.5 340.167,37.5 342.5,37.5C 342.5,51.5 342.5,65.5 342.5,79.5C 340.167,79.5 337.833,79.5 335.5,79.5C 335.5,65.5 335.5,51.5 335.5,37.5 Z"/></g>
<g><path style="opacity:1" fill="#0a0a0a" d="M 349.5,42.5 C 349.5,41.1667 349.5,39.8333 349.5,38.5C 351.5,38.5 353.5,38.5 355.5,38.5C 357.762,47.0138 359.929,55.6805 362,64.5C 364.592,56.3742 366.592,48.0409 368,39.5C 370.135,37.7215 372.635,37.0548 375.5,37.5C 375.663,39.8568 375.497,42.1902 375,44.5C 371.439,55.9117 368.273,67.4117 365.5,79C 363.231,79.7581 361.064,79.5914 359,78.5C 355.299,66.6143 352.133,54.6143 349.5,42.5 Z"/></g>
<g><path style="opacity:1" fill="#0e0e0e" d="M 223.5,38.5 C 224.376,38.3691 225.043,38.7025 225.5,39.5C 232.039,52.7445 238.706,65.9112 245.5,79C 231.5,79.6667 217.5,79.6667 203.5,79C 210.578,65.6784 217.244,52.1784 223.5,38.5 Z"/></g>
<g><path style="opacity:1" fill="#141414" d="M 44.5,39.5 C 44.8333,39.5 45.1667,39.5 45.5,39.5C 41.5063,44.4898 38.8396,50.1565 37.5,56.5C 36.5224,56.0233 35.6891,55.3567 35,54.5C 35.4064,47.8941 38.5731,42.8941 44.5,39.5 Z"/></g>
<g><path style="opacity:1" fill="#080808" d="M 47.5,41.5 C 49.1439,41.2865 50.6439,41.6198 52,42.5C 54.1797,45.3589 55.6797,48.5256 56.5,52C 37.4502,60.9956 34.4502,57.4956 47.5,41.5 Z"/></g>
<g><path style="opacity:1" fill="#efefef" d="M 181.5,44.5 C 187.303,44.81 189.47,47.81 188,53.5C 186.429,55.9229 184.263,57.2562 181.5,57.5C 181.5,53.1667 181.5,48.8333 181.5,44.5 Z"/></g>
<g><path style="opacity:1" fill="#f3f3f3" d="M 258.5,44.5 C 261.862,44.0695 264.695,45.0695 267,47.5C 270.145,54.491 270.145,61.491 267,68.5C 264.772,71.0779 261.939,72.4113 258.5,72.5C 258.5,63.1667 258.5,53.8333 258.5,44.5 Z"/></g>
<g><path style="opacity:1" fill="#f1f1f1" d="M 235.5,67.5 C 230.833,68.8333 226.167,68.8333 221.5,67.5C 221.611,66.8826 221.944,66.3826 222.5,66C 225.167,65.6667 227.833,65.3333 230.5,65C 228.626,61.4186 226.626,57.9186 224.5,54.5C 221.245,60.0084 218.245,65.675 215.5,71.5C 223.167,72.1667 230.833,72.8333 238.5,73.5C 238.863,74.1835 239.196,74.8501 239.5,75.5C 229.652,75.8271 219.986,75.4938 210.5,74.5C 214.628,64.9098 219.295,55.5765 224.5,46.5C 228.434,53.3691 232.101,60.3691 235.5,67.5 Z"/></g>
<g><path style="opacity:1" fill="#0b0b0b" d="M 62.5,54.5 C 67.1585,54.0146 68.4919,55.848 66.5,60C 61.7282,60.8104 60.3948,58.9771 62.5,54.5 Z"/></g>
<g><path style="opacity:1" fill="#0b0b0b" d="M 82.5,58.5 C 84.8333,58.5 87.1667,58.5 89.5,58.5C 88.5719,62.3621 87.0719,66.0288 85,69.5C 81.3673,74.5374 78.034,74.5374 75,69.5C 73.9207,66.9373 73.4207,64.2706 73.5,61.5C 76.6702,60.7345 79.6702,59.7345 82.5,58.5 Z"/></g>
<g><path style="opacity:1" fill="#111111" d="M 84.5,76.5 C 83.8333,76.5 83.1667,76.5 82.5,76.5C 87.5763,72.0122 90.243,66.3455 90.5,59.5C 91.8221,59.33 92.9887,59.6634 94,60.5C 94.4838,62.9129 94.1505,65.2462 93,67.5C 89.9621,70.3694 87.1288,73.3694 84.5,76.5 Z"/></g>
<g><path style="opacity:1" fill="#0d0d0d" d="M 44.5,60.5 C 48.2148,60.423 51.8815,60.7564 55.5,61.5C 55.7114,67.6564 54.2114,73.323 51,78.5C 47.5489,75.0441 44.8822,71.0441 43,66.5C 42.2516,64.1599 42.7516,62.1599 44.5,60.5 Z"/></g>
<g><path style="opacity:1" fill="#0c0c0c" d="M 63.5,67.5 C 68.6966,69.7808 72.6966,73.4474 75.5,78.5C 69.7499,82.3356 63.9165,82.3356 58,78.5C 58.2064,74.087 60.0398,70.4203 63.5,67.5 Z"/></g>
<g><path style="opacity:1" fill="#969696" d="M 221.5,67.5 C 226.167,68.8333 230.833,68.8333 235.5,67.5C 236.043,67.56 236.376,67.8933 236.5,68.5C 231.167,69.8333 225.833,69.8333 220.5,68.5C 220.624,67.8933 220.957,67.56 221.5,67.5 Z"/></g>
<g><path style="opacity:1" fill="#131313" d="M 39.5,67.5 C 42.5569,72.0661 46.2235,76.2328 50.5,80C 48.5497,81.4961 46.5497,81.6627 44.5,80.5C 41.4237,76.6852 39.757,72.3519 39.5,67.5 Z"/></g>
<g><path style="opacity:1" fill="#a6a6a6" d="M 290.5,60.5 C 290.5,63.8333 290.5,67.1667 290.5,70.5C 293.385,70.1936 296.052,70.5269 298.5,71.5C 295.5,71.5 292.5,71.5 289.5,71.5C 289.185,67.6286 289.518,63.9619 290.5,60.5 Z"/></g>
<g><path style="opacity:1" fill="#9c9c9c" d="M 389.5,60.5 C 389.5,63.8333 389.5,67.1667 389.5,70.5C 392.385,70.1936 395.052,70.5269 397.5,71.5C 394.5,71.5 391.5,71.5 388.5,71.5C 388.185,67.6286 388.518,63.9619 389.5,60.5 Z"/></g>
<g><path style="opacity:1" fill="#9f9f9f" d="M 210.5,74.5 C 219.986,75.4938 229.652,75.8271 239.5,75.5C 229.659,76.8229 219.659,76.8229 209.5,75.5C 209.624,74.8933 209.957,74.56 210.5,74.5 Z"/></g>
<g><path style="opacity:1" fill="#707070" d="M 82.5,76.5 C 83.1667,76.5 83.8333,76.5 84.5,76.5C 83.4863,77.6737 82.153,78.3404 80.5,78.5C 79.9569,78.44 79.6236,78.1067 79.5,77.5C 80.325,76.6143 81.325,76.281 82.5,76.5 Z"/></g>
<g><path style="opacity:1" fill="#131313" d="M 59.5,83.5 C 65.2881,83.6882 70.9548,83.0215 76.5,81.5C 76.7135,83.1439 76.3802,84.6439 75.5,86C 71.8333,86.6667 68.1667,86.6667 64.5,86C 62.5087,85.6264 60.842,84.793 59.5,83.5 Z"/></g>
<g><path style="opacity:1" fill="#6d6d6d" d="M 59.5,83.5 C 58.5084,83.3284 57.8417,83.6618 57.5,84.5C 56.3951,83.3995 55.0618,82.7329 53.5,82.5C 53.7828,81.7109 54.2828,81.0442 55,80.5C 56.6516,81.3994 58.1516,82.3994 59.5,83.5 Z"/></g>
</svg>
