<?xml version="1.0" encoding="UTF-8"?>
<!DOCTYPE svg PUBLIC "-//W3C//DTD SVG 1.1//EN" "http://www.w3.org/Graphics/SVG/1.1/DTD/svg11.dtd">
<svg xmlns="http://www.w3.org/2000/svg" version="1.1" width="410px" height="123px" style="shape-rendering:geometricPrecision; text-rendering:geometricPrecision; image-rendering:optimizeQuality; fill-rule:evenodd; clip-rule:evenodd" xmlns:xlink="http://www.w3.org/1999/xlink">
<g><path style="opacity:1" fill="#010101" d="M -0.5,-0.5 C 136.167,-0.5 272.833,-0.5 409.5,-0.5C 409.5,40.5 409.5,81.5 409.5,122.5C 272.833,122.5 136.167,122.5 -0.5,122.5C -0.5,81.5 -0.5,40.5 -0.5,-0.5 Z"/></g>
<g><path style="opacity:1" fill="#fcfcfc" d="M 9.5,6.5 C 46.1682,6.33335 82.8348,6.50001 119.5,7C 122.381,8.2506 124.214,10.4173 125,13.5C 125.667,45.1667 125.667,76.8333 125,108.5C 123.75,111.171 121.917,113.337 119.5,115C 82.4154,115.987 45.4154,115.654 8.5,114C 6.95118,112.786 5.78451,111.286 5,109.5C 4.33333,76.8333 4.33333,44.1667 5,11.5C 6.70733,9.96252 8.20733,8.29585 9.5,6.5 Z"/></g>
<g><path style="opacity:1" fill="#101010" d="M 71.5,33.5 C 71.1667,33.5 70.8333,33.5 70.5,33.5C 65.3166,31.6499 59.9833,31.1499 54.5,32C 53.6198,33.3561 53.2865,34.8561 53.5,36.5C 59.0696,35.1033 64.7362,34.4366 70.5,34.5C 71.2905,35.4013 72.2905,36.0679 73.5,36.5C 74.1174,36.6107 74.6174,36.944 75,37.5C 80,30.8333 85,30.8333 90,37.5C 92.1813,42.9778 92.848,48.6444 92,54.5C 91.3451,49.2128 89.8451,44.2128 87.5,39.5C 86.3689,38.2485 85.0356,37.2485 83.5,36.5C 81.9996,36.4528 80.9996,37.1195 80.5,38.5C 86.4901,43.4792 90.1568,49.8125 91.5,57.5C 97.761,58.6832 99.9277,62.3499 98,68.5C 95.3393,73.9084 91.1726,77.5751 85.5,79.5C 89.2662,76.3631 92.4328,72.6964 95,68.5C 95.6667,66.8333 95.6667,65.1667 95,63.5C 94.4387,62.9781 93.772,62.6448 93,62.5C 90.8307,66.6372 88.8307,70.9706 87,75.5C 85.2545,77.7493 83.0879,79.4159 80.5,80.5C 80.6236,81.1067 80.9569,81.44 81.5,81.5C 82.0131,91.4394 77.3464,94.9394 67.5,92C 64.1943,91.0138 61.1943,89.5138 58.5,87.5C 58.8417,86.6618 59.5084,86.3284 60.5,86.5C 59.2347,85.5207 57.9014,84.5207 56.5,83.5C 55.4777,83.8555 54.811,84.5222 54.5,85.5C 49.9897,89.8294 45.823,89.4961 42,84.5C 39.2455,78.8142 38.0788,72.8142 38.5,66.5C 39.8068,71.8897 41.6401,77.2231 44,82.5C 45.8083,84.3959 47.975,84.8959 50.5,84C 51.2524,83.3292 51.5858,82.4959 51.5,81.5C 48.9438,80.4566 46.7772,78.7899 45,76.5C 42.5107,72.1133 40.344,67.7799 38.5,63.5C 32.9751,61.7402 31.1418,58.0735 33,52.5C 36.1181,47.5428 40.2848,43.8762 45.5,41.5C 45.5,41.8333 45.5,42.1667 45.5,42.5C 41.8348,45.3325 38.6682,48.6659 36,52.5C 34.9096,55.579 35.7429,57.9124 38.5,59.5C 39.8396,53.1565 42.5063,47.4898 46.5,42.5C 49.6343,42.2934 50.6343,40.9601 49.5,38.5C 48.9349,29.9225 52.9349,26.7559 61.5,29C 65.4215,29.4624 68.7548,30.9624 71.5,33.5 Z"/></g>
<g><path style="opacity:1" fill="#ededed" d="M 70.5,33.5 C 70.5,33.8333 70.5,34.1667 70.5,34.5C 64.7362,34.4366 59.0696,35.1033 53.5,36.5C 53.2865,34.8561 53.6198,33.3561 54.5,32C 59.9833,31.1499 65.3166,31.6499 70.5,33.5 Z"/></g>
<g><path style="opacity:1" fill="#7d7d7d" d="M 70.5,33.5 C 70.8333,33.5 71.1667,33.5 71.5,33.5C 74.0069,33.6322 74.6736,34.6322 73.5,36.5C 72.2905,36.0679 71.2905,35.4013 70.5,34.5C 70.5,34.1667 70.5,33.8333 70.5,33.5 Z"/></g>
<g><path style="opacity:1" fill="#f2f2f2" d="M 58.5,36.5 C 61.5184,36.3354 64.5184,36.502 67.5,37C 73.1816,38.7243 74.0149,41.891 70,46.5C 68.8333,47.6667 67.6667,48.8333 66.5,50C 60.8432,48.1829 56.8432,44.3495 54.5,38.5C 55.9492,37.8281 57.2825,37.1614 58.5,36.5 Z"/></g>
<g><path style="opacity:1" fill="#f3f3f3" d="M 78.5,39.5 C 83.7384,43.6473 86.5717,48.9807 87,55.5C 85.5267,57.0071 83.6934,57.6738 81.5,57.5C 79.1417,57.2471 76.8083,56.9138 74.5,56.5C 74.1115,50.3895 75.4448,44.7228 78.5,39.5 Z"/></g>
<g><path style="opacity:1" fill="#f7f7f7" d="M 148.5,40.5 C 155.5,40.5 162.5,40.5 169.5,40.5C 169.5,42.8333 169.5,45.1667 169.5,47.5C 167.167,47.5 164.833,47.5 162.5,47.5C 162.5,59.1667 162.5,70.8333 162.5,82.5C 160.167,82.5 157.833,82.5 155.5,82.5C 155.5,70.8333 155.5,59.1667 155.5,47.5C 153.167,47.5 150.833,47.5 148.5,47.5C 148.5,45.1667 148.5,42.8333 148.5,40.5 Z"/></g>
<g><path style="opacity:1" fill="#f7f7f7" d="M 175.5,40.5 C 180.211,40.2816 184.878,40.6149 189.5,41.5C 195.159,44.488 197.326,49.1547 196,55.5C 194.981,59.1744 193.148,62.3411 190.5,65C 193.031,70.5611 195.697,76.0611 198.5,81.5C 195.833,82.8333 193.167,82.8333 190.5,81.5C 187.473,76.7789 184.973,71.7789 183,66.5C 182.501,71.8229 182.334,77.1563 182.5,82.5C 180.167,82.5 177.833,82.5 175.5,82.5C 175.5,68.5 175.5,54.5 175.5,40.5 Z"/></g>
<g><path style="opacity:1" fill="#f6f6f6" d="M 291.5,63.5 C 290.518,66.9619 290.185,70.6286 290.5,74.5C 293.5,74.5 296.5,74.5 299.5,74.5C 300.993,75.3121 301.66,76.6455 301.5,78.5C 301.291,79.9945 300.624,81.1612 299.5,82C 294.249,82.8037 289.082,82.637 284,81.5C 283.333,68.1667 283.333,54.8333 284,41.5C 289.741,40.5251 295.575,40.1918 301.5,40.5C 301.5,42.8333 301.5,45.1667 301.5,47.5C 298.15,47.335 294.817,47.5017 291.5,48C 290.167,50.6667 290.167,53.3333 291.5,56C 294.482,56.498 297.482,56.6646 300.5,56.5C 300.5,58.8333 300.5,61.1667 300.5,63.5C 297.5,63.5 294.5,63.5 291.5,63.5 Z"/></g>
<g><path style="opacity:1" fill="#f2f2f2" d="M 390.5,64.5 C 389.521,67.6248 389.187,70.9581 389.5,74.5C 392.5,74.5 395.5,74.5 398.5,74.5C 399.725,75.1522 400.392,76.3189 400.5,78C 400.441,79.4357 400.108,80.769 399.5,82C 393.916,82.8056 388.416,82.6389 383,81.5C 382.333,68.1667 382.333,54.8333 383,41.5C 388.741,40.5251 394.575,40.1918 400.5,40.5C 400.5,42.8333 400.5,45.1667 400.5,47.5C 397.167,47.5 393.833,47.5 390.5,47.5C 390.5,50.5 390.5,53.5 390.5,56.5C 393.833,56.5 397.167,56.5 400.5,56.5C 400.756,58.7925 400.423,60.9592 399.5,63C 396.305,63.1805 393.305,63.6805 390.5,64.5 Z"/></g>
<g><path style="opacity:1" fill="#777777" d="M 49.5,38.5 C 50.6343,40.9601 49.6343,42.2934 46.5,42.5C 46.1667,42.5 45.8333,42.5 45.5,42.5C 45.5,42.1667 45.5,41.8333 45.5,41.5C 46.8333,40.5 48.1667,39.5 49.5,38.5 Z"/></g>
<g><path style="opacity:1" fill="#f6f6f6" d="M 252.5,40.5 C 269.158,37.8356 277.491,44.8356 277.5,61.5C 277.256,77.8281 268.923,84.4948 252.5,81.5C 252.5,67.8333 252.5,54.1667 252.5,40.5 Z"/></g>
<g><path style="opacity:1" fill="#f8f8f8" d="M 307.5,81.5 C 307.5,68.1667 307.5,54.8333 307.5,41.5C 309.5,41.5 311.5,41.5 313.5,41.5C 314.489,46.9753 314.822,52.642 314.5,58.5C 317.5,58.5 320.5,58.5 323.5,58.5C 323.5,52.5 323.5,46.5 323.5,40.5C 325.833,40.5 328.167,40.5 330.5,40.5C 330.5,54.5 330.5,68.5 330.5,82.5C 328.167,82.5 325.833,82.5 323.5,82.5C 323.5,76.8333 323.5,71.1667 323.5,65.5C 320.5,65.5 317.5,65.5 314.5,65.5C 314.5,71.1667 314.5,76.8333 314.5,82.5C 311.941,82.8016 309.607,82.4682 307.5,81.5 Z"/></g>
<g><path style="opacity:1" fill="#fcfcfc" d="M 336.5,40.5 C 338.833,40.5 341.167,40.5 343.5,40.5C 343.5,54.5 343.5,68.5 343.5,82.5C 341.167,82.5 338.833,82.5 336.5,82.5C 336.5,68.5 336.5,54.5 336.5,40.5 Z"/></g>
<g><path style="opacity:1" fill="#f3f3f3" d="M 349.5,40.5 C 352.119,40.2317 354.619,40.565 357,41.5C 358.816,50.2231 360.816,58.8898 363,67.5C 365.313,59.3248 367.313,50.9915 369,42.5C 371.106,40.709 373.606,40.0423 376.5,40.5C 376.663,42.8568 376.497,45.1902 376,47.5C 372.378,58.6537 369.378,69.987 367,81.5C 364.619,82.435 362.119,82.7683 359.5,82.5C 356.167,68.5 352.833,54.5 349.5,40.5 Z"/></g>
<g><path style="opacity:1" fill="#f3f3f3" d="M 224.5,41.5 C 225.376,41.3691 226.043,41.7025 226.5,42.5C 233.039,55.7445 239.706,68.9112 246.5,82C 232.5,82.6667 218.5,82.6667 204.5,82C 211.578,68.6784 218.244,55.1784 224.5,41.5 Z"/></g>
<g><path style="opacity:1" fill="#eaeaea" d="M 45.5,42.5 C 45.8333,42.5 46.1667,42.5 46.5,42.5C 42.5063,47.4898 39.8396,53.1565 38.5,59.5C 35.7429,57.9124 34.9096,55.579 36,52.5C 38.6682,48.6659 41.8348,45.3325 45.5,42.5 Z"/></g>
<g><path style="opacity:1" fill="#f3f3f3" d="M 48.5,44.5 C 50.7224,44.178 52.5557,44.8446 54,46.5C 56.0873,49.1995 57.0873,52.1995 57,55.5C 38.0991,63.8864 35.2658,60.2198 48.5,44.5 Z"/></g>
<g><path style="opacity:1" fill="#0f0f0f" d="M 182.5,47.5 C 186.683,47.35 189.016,49.35 189.5,53.5C 189.016,57.65 186.683,59.65 182.5,59.5C 182.5,55.5 182.5,51.5 182.5,47.5 Z"/></g>
<g><path style="opacity:1" fill="#060606" d="M 260.5,47.5 C 263.475,47.3069 265.975,48.3069 268,50.5C 271.151,57.4711 271.151,64.4711 268,71.5C 266.322,73.6659 264.155,74.9993 261.5,75.5C 260.528,66.25 260.195,56.9167 260.5,47.5 Z"/></g>
<g><path style="opacity:1" fill="#0f0f0f" d="M 236.5,70.5 C 231.833,71.8333 227.167,71.8333 222.5,70.5C 222.611,69.8826 222.944,69.3826 223.5,69C 226.167,68.6667 228.833,68.3333 231.5,68C 229.706,64.9123 228.039,61.7456 226.5,58.5C 225.998,57.479 225.332,57.3123 224.5,58C 221.139,63.5524 218.473,69.3857 216.5,75.5C 224.196,75.1692 231.862,75.5025 239.5,76.5C 239.863,77.1835 240.196,77.8501 240.5,78.5C 230.652,78.8271 220.986,78.4938 211.5,77.5C 215.628,67.9098 220.295,58.5765 225.5,49.5C 229.434,56.3691 233.101,63.3691 236.5,70.5 Z"/></g>
<g><path style="opacity:1" fill="#3d3d3d" d="M 260.5,47.5 C 260.195,56.9167 260.528,66.25 261.5,75.5C 260.173,71.2175 259.507,66.5508 259.5,61.5C 259.501,56.6543 259.834,51.9876 260.5,47.5 Z"/></g>
<g><path style="opacity:1" fill="#838383" d="M 313.5,41.5 C 311.5,41.5 309.5,41.5 307.5,41.5C 307.5,54.8333 307.5,68.1667 307.5,81.5C 306.504,68.0102 306.171,54.3435 306.5,40.5C 309.059,40.1984 311.393,40.5318 313.5,41.5 Z"/></g>
<g><path style="opacity:1" fill="#f7f7f7" d="M 63.5,57.5 C 68.1585,57.0146 69.4919,58.848 67.5,63C 62.7282,63.8104 61.3948,61.9771 63.5,57.5 Z"/></g>
<g><path style="opacity:1" fill="#f5f5f5" d="M 83.5,61.5 C 85.924,61.1924 88.2573,61.5258 90.5,62.5C 89.4973,68.0082 86.8307,72.5082 82.5,76C 80.8876,76.7203 79.3876,76.5536 78,75.5C 75.1457,72.3855 73.979,68.7189 74.5,64.5C 77.6702,63.7345 80.6702,62.7345 83.5,61.5 Z"/></g>
<g><path style="opacity:1" fill="#d8d8d8" d="M 85.5,79.5 C 84.4863,80.6737 83.153,81.3404 81.5,81.5C 80.9569,81.44 80.6236,81.1067 80.5,80.5C 83.0879,79.4159 85.2545,77.7493 87,75.5C 88.8307,70.9706 90.8307,66.6372 93,62.5C 93.772,62.6448 94.4387,62.9781 95,63.5C 95.6667,65.1667 95.6667,66.8333 95,68.5C 92.4328,72.6964 89.2662,76.3631 85.5,79.5 Z"/></g>
<g><path style="opacity:1" fill="#f3f3f3" d="M 51.5,81.5 C 46.5904,77.2602 44.0904,71.9269 44,65.5C 45.2991,64.0203 46.9658,63.3536 49,63.5C 51.4979,63.9172 53.9979,64.2505 56.5,64.5C 57.4218,71.0562 55.7551,76.7229 51.5,81.5 Z"/></g>
<g><path style="opacity:1" fill="#f3f3f3" d="M 64.5,70.5 C 69.6966,72.7808 73.6966,76.4474 76.5,81.5C 76.2907,82.086 75.9574,82.586 75.5,83C 69.6445,85.4114 64.1445,84.9114 59,81.5C 59.2064,77.087 61.0398,73.4203 64.5,70.5 Z"/></g>
<g><path style="opacity:1" fill="#686868" d="M 222.5,70.5 C 227.167,71.8333 231.833,71.8333 236.5,70.5C 237.043,70.56 237.376,70.8933 237.5,71.5C 232.167,72.8333 226.833,72.8333 221.5,71.5C 221.624,70.8933 221.957,70.56 222.5,70.5 Z"/></g>
<g><path style="opacity:1" fill="#d9d9d9" d="M 38.5,63.5 C 40.344,67.7799 42.5107,72.1133 45,76.5C 46.7772,78.7899 48.9438,80.4566 51.5,81.5C 51.5858,82.4959 51.2524,83.3292 50.5,84C 47.975,84.8959 45.8083,84.3959 44,82.5C 41.6401,77.2231 39.8068,71.8897 38.5,66.5C 38.5,65.5 38.5,64.5 38.5,63.5 Z"/></g>
<g><path style="opacity:1" fill="#575757" d="M 291.5,63.5 C 291.5,66.8333 291.5,70.1667 291.5,73.5C 294.385,73.1936 297.052,73.5269 299.5,74.5C 296.5,74.5 293.5,74.5 290.5,74.5C 290.185,70.6286 290.518,66.9619 291.5,63.5 Z"/></g>
<g><path style="opacity:1" fill="#606060" d="M 390.5,64.5 C 390.5,67.5 390.5,70.5 390.5,73.5C 393.385,73.1936 396.052,73.5269 398.5,74.5C 395.5,74.5 392.5,74.5 389.5,74.5C 389.187,70.9581 389.521,67.6248 390.5,64.5 Z"/></g>
<g><path style="opacity:1" fill="#5e5e5e" d="M 211.5,77.5 C 220.986,78.4938 230.652,78.8271 240.5,78.5C 230.659,79.8229 220.659,79.8229 210.5,78.5C 210.624,77.8933 210.957,77.56 211.5,77.5 Z"/></g>
<g><path style="opacity:1" fill="#e9e9e9" d="M 60.5,86.5 C 66.6094,86.6226 72.6094,85.956 78.5,84.5C 78.7035,86.3904 78.0368,87.8904 76.5,89C 72.8333,89.6667 69.1667,89.6667 65.5,89C 63.5087,88.6264 61.842,87.793 60.5,86.5 Z"/></g>
<g><path style="opacity:1" fill="#8b8b8b" d="M 60.5,86.5 C 59.5084,86.3284 58.8417,86.6618 58.5,87.5C 57.3951,86.3995 56.0618,85.7329 54.5,85.5C 54.811,84.5222 55.4777,83.8555 56.5,83.5C 57.9014,84.5207 59.2347,85.5207 60.5,86.5 Z"/></g>
</svg>
